<svg xmlns="http://www.w3.org/2000/svg" viewBox="0 0 50 50"><defs><style>.cls-1{fill:#9cb4ec;stroke:#9cb4ec;stroke-width:2px;}.cls-1,.cls-2{stroke-miterlimit:10;}.cls-2{fill:none;stroke:#fff;}</style></defs><g id="Laag_2" data-name="Laag 2"><g id="Laag_1-2" data-name="Laag 1"><circle class="cls-1" cx="25" cy="25" r="24"/><path class="cls-2" d="M25,16a7.39,7.39,0,0,0-3.8-4.5c-3.2-1.4-6.8.4-8.6,2.5-2.1,2.4-2,5.5-2,6.9a14.7,14.7,0,0,0,2.1,6.7,32,32,0,0,0,4.5,6.5c1.9,2.2,4.4,5.1,7.7,8.3A70.4,70.4,0,0,0,32.8,34a33.15,33.15,0,0,0,4.7-7,14.36,14.36,0,0,0,1.8-6.5c0-1.6.1-4.8-2.3-7.2-1.8-1.8-5.2-3.2-8.3-1.8A8.06,8.06,0,0,0,25,16Z"/></g></g></svg>