<svg xmlns="http://www.w3.org/2000/svg" xmlns:xlink="http://www.w3.org/1999/xlink" viewBox="0 0 43.81 47.35"><defs><style>.cls-1,.cls-2{fill:none;stroke-miterlimit:10;stroke-width:2px;}.cls-1{stroke:url(#Naamloos_verloop);}.cls-2{stroke:#9cb4ec;}</style><linearGradient id="Naamloos_verloop" y1="23.76" x2="22.45" y2="23.76" gradientUnits="userSpaceOnUse"><stop offset="0.15" stop-color="#fff"/><stop offset="0.82" stop-color="#aad5e5"/></linearGradient></defs><g id="Laag_2" data-name="Laag 2"><g id="Laag_1-2" data-name="Laag 1"><g id="Laag_2-2" data-name="Laag 2"><path class="cls-1" d="M21.46,7.35a8.08,8.08,0,0,0-2.6-3.7,8.72,8.72,0,0,0-4.6-2.3C10,.45,6.46,3.25,5.66,4a13.31,13.31,0,0,0-3.6,4.5,11.33,11.33,0,0,0-1,5,19.72,19.72,0,0,0,1.1,7.8,25.56,25.56,0,0,0,2.7,5.5,61.2,61.2,0,0,0,4.9,6.8c.9,1,3.9,4.9,8.6,9.8,1.3,1.4,2.4,2.4,3.3,3.3"/></g><g id="Laag_2-3" data-name="Laag 2"><path class="cls-2" d="M22.16,46.45c.9-.9,2-1.9,3.3-3.3,4.7-4.9,7.8-8.8,8.6-9.8a53.13,53.13,0,0,0,4.9-6.8,25.56,25.56,0,0,0,2.7-5.5,19.72,19.72,0,0,0,1.1-7.8,11.33,11.33,0,0,0-1-5,13.17,13.17,0,0,0-3.6-4.5c-.9-.7-4.3-3.4-8.6-2.6A8.72,8.72,0,0,0,25,3.45a8.62,8.62,0,0,0-2.6,3.7"/></g></g></g></svg>