<svg xmlns="http://www.w3.org/2000/svg" viewBox="0 0 50 50"><defs><style>.cls-2{stroke:#9cb4ec;stroke-miterlimit:10;fill:none}</style></defs><g id="Laag_2" data-name="Laag 2"><g id="Laag_1-2" data-name="Laag 1"><circle cx="25" cy="25" r="24" stroke="#9cb4ec" stroke-miterlimit="10" fill="#f5f4f5" stroke-width="2"/><path class="cls-2" d="M25 15.6a7.39 7.39 0 00-3.8-4.5c-3.2-1.4-6.8.4-8.6 2.5-2.1 2.4-2 5.5-2 6.9a14.7 14.7 0 002.1 6.7 32 32 0 004.5 6.5c1.9 2.2 4.4 5.1 7.7 8.3a70.4 70.4 0 007.9-8.4 33.15 33.15 0 004.7-7 14.36 14.36 0 001.8-6.5c0-1.6.1-4.8-2.3-7.2-1.8-1.8-5.2-3.2-8.3-1.8a8.06 8.06 0 00-3.7 4.5z"/><path class="cls-2" d="M25.1 15.5L24 19.1l2.3.6-2.8 2.4 4.2 3.5-3.2 3.8h3.2l-4.2 6.7 2.1 3.2-.7 2.8"/></g></g></svg>