<svg xmlns="http://www.w3.org/2000/svg" viewBox="0 0 50 50"><g data-name="Laag 2"><g data-name="Laag 1" stroke-miterlimit="10"><circle cx="25" cy="25" r="24" fill="#9cb4ec" stroke="#9cb4ec" stroke-width="2"/><path d="M25 16a7.39 7.39 0 00-3.8-4.5c-3.2-1.4-6.8.4-8.6 2.5-2.1 2.4-2 5.5-2 6.9a14.7 14.7 0 002.1 6.7 32 32 0 004.5 6.5c1.9 2.2 4.4 5.1 7.7 8.3a70.4 70.4 0 007.9-8.4 33.15 33.15 0 004.7-7 14.36 14.36 0 001.8-6.5c0-1.6.1-4.8-2.3-7.2-1.8-1.8-5.2-3.2-8.3-1.8A8.06 8.06 0 0025 16z" fill="none" stroke="#fff"/></g></g></svg>